<?xml version="1.0" encoding="utf-8"?>
<!-- Generator: Adobe Illustrator 19.2.1, SVG Export Plug-In . SVG Version: 6.00 Build 0)  -->
<svg version="1.1" id="layer" xmlns="http://www.w3.org/2000/svg" xmlns:xlink="http://www.w3.org/1999/xlink" x="0px" y="0px"
	 viewBox="0 0 652 652" style="enable-background:new 0 0 652 652;" xml:space="preserve">
<style type="text/css">
	.st0{clip-path:url(#SVGID_2_);fill:url(#SVGID_3_);}
	.st1{clip-path:url(#SVGID_5_);fill:url(#SVGID_6_);}
	.st2{clip-path:url(#SVGID_8_);fill:url(#SVGID_9_);}
	.st3{clip-path:url(#SVGID_11_);fill:url(#SVGID_12_);}
	.st4{clip-path:url(#SVGID_14_);fill:url(#SVGID_15_);}
	.st5{clip-path:url(#SVGID_17_);fill:url(#SVGID_18_);}
	.st6{clip-path:url(#SVGID_20_);fill:url(#SVGID_21_);}
	.st7{fill:#FFFFFF;}
	.st8{fill:#808284;}
	.st9{fill:#59595C;}
</style>
<g>
	<g>
		<g>
			<g>
				<g>
					<g>
						<g>
							<g>
								<defs>
									<path id="SVGID_1_" d="M80.4,311.9c-22.9,0.3-48.1,19-56.8,25.6l0.3,36.4c8.3-10.4,33.6-34.6,58.9-38.1
										c1,0,2.1-0.3,2.8-0.3L82.9,313c0-0.7-0.3-1-0.3-1.7C81.5,311.6,81.1,311.6,80.4,311.9L80.4,311.9"/>
								</defs>
								<clipPath id="SVGID_2_">
									<use xlink:href="#SVGID_1_"  style="overflow:visible;"/>
								</clipPath>
								
									<linearGradient id="SVGID_3_" gradientUnits="userSpaceOnUse" x1="230.0185" y1="613.2886" x2="233.7829" y2="613.2886" gradientTransform="matrix(18.9267 -6.1497 -6.1497 -18.9267 -564.1332 13377.1426)">
									<stop  offset="0" style="stop-color:#006FB9"/>
									<stop  offset="0.1087" style="stop-color:#0080C7"/>
									<stop  offset="0.3219" style="stop-color:#00ABEC"/>
									<stop  offset="0.3333" style="stop-color:#00ADEE"/>
									<stop  offset="0.4317" style="stop-color:#00A4E3"/>
									<stop  offset="0.6024" style="stop-color:#008BC7"/>
									<stop  offset="0.8233" style="stop-color:#006399"/>
									<stop  offset="1" style="stop-color:#003E70"/>
								</linearGradient>
								<polygon class="st0" points="5.3,318.1 80.4,293.6 103.6,368.3 29.5,391.9 								"/>
							</g>
						</g>
					</g>
				</g>
			</g>
		</g>
	</g>
	<g>
		<g>
			<g>
				<g>
					<g>
						<g>
							<g>
								<defs>
									<path id="SVGID_4_" d="M88,317.5c-3.1,0.3-4.5-0.7-4.5-3.8l3.1,22.5l0,0c0.3,3.5,1,8.7,5.9,8c6.9-1,18-5.9,31.9-18.7v-33.2
										C111.9,308.1,93.9,316.4,88,317.5"/>
								</defs>
								<clipPath id="SVGID_5_">
									<use xlink:href="#SVGID_4_"  style="overflow:visible;"/>
								</clipPath>
								
									<linearGradient id="SVGID_6_" gradientUnits="userSpaceOnUse" x1="226.3425" y1="606.5328" x2="230.1066" y2="606.5328" gradientTransform="matrix(12.1364 -2.5797 -2.5797 -12.1364 -1099.3472 8267.6895)">
									<stop  offset="0" style="stop-color:#006FB9"/>
									<stop  offset="1.261357e-002" style="stop-color:#0077C0"/>
									<stop  offset="5.656515e-002" style="stop-color:#008FD4"/>
									<stop  offset="0.1034" style="stop-color:#00A0E3"/>
									<stop  offset="0.1545" style="stop-color:#00AAEB"/>
									<stop  offset="0.2182" style="stop-color:#00ADEE"/>
									<stop  offset="0.3335" style="stop-color:#00A4E3"/>
									<stop  offset="0.5337" style="stop-color:#008BC7"/>
									<stop  offset="0.7927" style="stop-color:#006399"/>
									<stop  offset="1" style="stop-color:#003E70"/>
								</linearGradient>
								<polygon class="st1" points="71.8,293.9 122.3,283.2 135.1,342.4 84.6,353.5 								"/>
							</g>
						</g>
					</g>
				</g>
			</g>
		</g>
	</g>
	<g>
		<g>
			<g>
				<g>
					<g>
						<g>
							<g>
								<defs>
									<path id="SVGID_7_" d="M85.6,336.1c-0.7,0-1.7,0-2.8,0.3C57.6,340,32,364.2,23.7,374.6v6.6H50c6.9-8,27.7-21.5,39.5-21.1
										L85.6,336.1L85.6,336.1z"/>
								</defs>
								<clipPath id="SVGID_8_">
									<use xlink:href="#SVGID_7_"  style="overflow:visible;"/>
								</clipPath>
								
									<linearGradient id="SVGID_9_" gradientUnits="userSpaceOnUse" x1="230.0559" y1="610.5424" x2="233.82" y2="610.5424" gradientTransform="matrix(18.1812 -3.8646 -3.8646 -18.1812 -1802.3015 12355.4893)">
									<stop  offset="0" style="stop-color:#6A100E"/>
									<stop  offset="8.777312e-003" style="stop-color:#6F110F"/>
									<stop  offset="9.074119e-002" style="stop-color:#951B15"/>
									<stop  offset="0.1759" style="stop-color:#B5231B"/>
									<stop  offset="0.2637" style="stop-color:#CE2A1F"/>
									<stop  offset="0.3555" style="stop-color:#DF2E22"/>
									<stop  offset="0.4538" style="stop-color:#EA3123"/>
									<stop  offset="0.5697" style="stop-color:#ED3224"/>
									<stop  offset="0.6318" style="stop-color:#E22F22"/>
									<stop  offset="0.7407" style="stop-color:#C5281D"/>
									<stop  offset="0.8824" style="stop-color:#961B15"/>
									<stop  offset="1" style="stop-color:#6A100E"/>
								</linearGradient>
								<polygon class="st2" points="14.6,337.5 86.7,322.6 98.1,379.4 26.4,394 								"/>
							</g>
						</g>
					</g>
				</g>
			</g>
		</g>
	</g>
	<g>
		<g>
			<g>
				<g>
					<g>
						<g>
							<g>
								<defs>
									<path id="SVGID_10_" d="M91.5,344.1c-5.2,0.7-5.5-4.5-5.9-8l0,0l3.5,23.9c0.3,2.8,1.4,5.9,4.2,7.3
										c7.6,4.2,31.2-10.4,31.2-10.4v-31.9C109.5,337.9,98.4,343.1,91.5,344.1"/>
								</defs>
								<clipPath id="SVGID_11_">
									<use xlink:href="#SVGID_10_"  style="overflow:visible;"/>
								</clipPath>
								
									<linearGradient id="SVGID_12_" gradientUnits="userSpaceOnUse" x1="223.8211" y1="602.6235" x2="227.5862" y2="602.6235" gradientTransform="matrix(10.778 -2.2909 -2.2909 -10.778 -944.2495 7359.9712)">
									<stop  offset="0" style="stop-color:#6A100E"/>
									<stop  offset="5.042214e-003" style="stop-color:#6F110F"/>
									<stop  offset="5.212718e-002" style="stop-color:#951B15"/>
									<stop  offset="0.101" style="stop-color:#B5231B"/>
									<stop  offset="0.1515" style="stop-color:#CE2A1F"/>
									<stop  offset="0.2042" style="stop-color:#DF2E22"/>
									<stop  offset="0.2607" style="stop-color:#EA3123"/>
									<stop  offset="0.3273" style="stop-color:#ED3224"/>
									<stop  offset="0.4244" style="stop-color:#E22F22"/>
									<stop  offset="0.5946" style="stop-color:#C5281D"/>
									<stop  offset="0.8162" style="stop-color:#961B15"/>
									<stop  offset="1" style="stop-color:#6A100E"/>
								</linearGradient>
								<polygon class="st3" points="76.3,327.1 122.3,317.5 133.7,369.4 88,379.4 								"/>
							</g>
						</g>
					</g>
				</g>
			</g>
		</g>
	</g>
	<g>
		<g>
			<g>
				<g>
					<g>
						<g>
							<g>
								<defs>
									<path id="SVGID_13_" d="M79.7,291.1c0,0,0.3,0.3,0.7,0.3c0.3,0.3,1.4,0.3,2.4,0.3l0,0l-0.7-3.8
										C81.5,289.1,79.4,290.1,79.7,291.1"/>
								</defs>
								<clipPath id="SVGID_14_">
									<use xlink:href="#SVGID_13_"  style="overflow:visible;"/>
								</clipPath>
								
									<linearGradient id="SVGID_15_" gradientUnits="userSpaceOnUse" x1="77.8557" y1="853.4019" x2="81.6263" y2="853.4019" gradientTransform="matrix(-0.2121 -0.9982 -0.9982 0.2121 949.4977 189.0639)">
									<stop  offset="0" style="stop-color:#D4AB08"/>
									<stop  offset="0.5398" style="stop-color:#E9D021"/>
									<stop  offset="1" style="stop-color:#F8EC33"/>
								</linearGradient>
								<polygon class="st4" points="79.4,292.2 78,288 82.2,287.3 83.2,291.8 								"/>
							</g>
						</g>
					</g>
				</g>
			</g>
		</g>
	</g>
	<g>
		<g>
			<g>
				<g>
					<g>
						<g>
							<g>
								<defs>
									<path id="SVGID_16_" d="M23.7,309.8v28.4c8.3-6.9,33.6-25.3,56.8-25.6c1,0,1.7,0,2.4,0l-3.1-21.1c-1-1.7,9-4.2-5.9-4.5
										c-0.3,0-1,0-1.4,0C42,286.3,23.7,309.8,23.7,309.8"/>
								</defs>
								<clipPath id="SVGID_17_">
									<use xlink:href="#SVGID_16_"  style="overflow:visible;"/>
								</clipPath>
								
									<linearGradient id="SVGID_18_" gradientUnits="userSpaceOnUse" x1="229.5019" y1="613.9222" x2="233.2667" y2="613.9222" gradientTransform="matrix(17.837 -5.7956 -5.7956 -17.837 -516.2161 12604.748)">
									<stop  offset="0" style="stop-color:#FFDC00"/>
									<stop  offset="0.1818" style="stop-color:#F8EC33"/>
									<stop  offset="0.305" style="stop-color:#EDD926"/>
									<stop  offset="0.5062" style="stop-color:#DFC016"/>
									<stop  offset="0.6893" style="stop-color:#D7B00C"/>
									<stop  offset="0.8364" style="stop-color:#D4AB08"/>
									<stop  offset="0.921" style="stop-color:#D2A908"/>
									<stop  offset="0.9607" style="stop-color:#CAA307"/>
									<stop  offset="0.9909" style="stop-color:#BE9906"/>
									<stop  offset="1" style="stop-color:#B89505"/>
								</linearGradient>
								<polygon class="st5" points="8.1,291.5 82.2,267.3 103.3,333 29.5,357.3 								"/>
							</g>
						</g>
					</g>
				</g>
			</g>
		</g>
	</g>
	<g>
		<g>
			<g>
				<g>
					<g>
						<g>
							<g>
								<defs>
									<path id="SVGID_19_" d="M80.4,291.5c-0.3,0-0.3-0.3-0.7-0.3l3.1,21.1c0.3,2.4,0.7,5.5,4.8,5.2c6.2-1,24.2-9.3,36.4-25.3
										v-33.2l0,0C106.1,289.4,83.9,293.2,80.4,291.5"/>
								</defs>
								<clipPath id="SVGID_20_">
									<use xlink:href="#SVGID_19_"  style="overflow:visible;"/>
								</clipPath>
								
									<linearGradient id="SVGID_21_" gradientUnits="userSpaceOnUse" x1="228.3289" y1="609.6497" x2="232.0934" y2="609.6497" gradientTransform="matrix(13.4628 -2.8616 -2.8616 -13.4628 -1250.8081 9154.5166)">
									<stop  offset="0" style="stop-color:#FFDC00"/>
									<stop  offset="0.1818" style="stop-color:#F8EC33"/>
									<stop  offset="0.3358" style="stop-color:#EDD926"/>
									<stop  offset="0.5873" style="stop-color:#DFC016"/>
									<stop  offset="0.8162" style="stop-color:#D7B00C"/>
									<stop  offset="1" style="stop-color:#D4AB08"/>
								</linearGradient>
								<polygon class="st6" points="67.6,261.7 122.3,250.3 136.2,315.4 81.1,327.1 								"/>
							</g>
						</g>
					</g>
				</g>
			</g>
		</g>
	</g>
	<path class="st7" d="M32.7,340.3c0.3,1.4,0.7,2.1,1,3.5c1-0.7,1.7-1,2.8-1.7c-0.7,1.7-1.4,2.4-2.1,3.8c0.3,1.4,0.7,2.1,1,3.5
		c-1-0.3-1.4-0.3-2.4-1c-0.7,1.4-1,2.1-2.1,3.8c0.3-1.7,0.3-2.8,0.7-4.5c-0.7-0.3-1-0.7-2.1-1.4c1-0.3,1.4-0.7,2.4-1.4
		C32.3,342.7,32.3,342,32.7,340.3"/>
	<path class="st7" d="M42,333.7c0.3,1.4,0.7,2.1,1.4,3.5c1-0.7,1.7-1,2.8-1.7c-1,1.7-1.4,2.4-2.4,3.8c0.3,1.4,0.7,2.1,1,3.5
		c-1-0.3-1.7-0.7-2.8-1c-0.7,2.1-1,2.8-2.1,4.2c0.3-1.7,0.3-2.8,0.7-4.5c-1-0.3-1.4-0.7-2.4-1c1-0.7,1.7-1,2.8-1.7
		C41.7,336.5,41.7,335.8,42,333.7"/>
	<path class="st7" d="M52.7,327.5c0.7,1.4,0.7,2.1,1.4,3.5c1.4-0.7,2.1-1,3.5-1.4c-1,1.4-1.7,2.4-2.8,3.8c0.3,1.4,0.7,2.1,1.4,3.5
		c-1.4-0.3-1.7-0.7-3.1-1c-1,1.4-1.7,2.4-2.8,3.8c0.3-1.7,0.3-2.8,0.7-4.5c-1-0.3-1.7-0.7-2.8-1c1.4-0.7,2.1-1,3.5-1.7
		C52,329.9,52.7,329.2,52.7,327.5"/>
	<path class="st7" d="M64.2,322.3c0.7,1.4,1,2.1,1.4,3.5c1.4-0.3,2.1-0.7,3.8-1c-1,1.4-1.7,2.1-2.8,3.5c0.7,1.4,0.7,2.1,1.4,3.8
		c-1.4-0.7-2.1-0.7-3.1-1.4c-1,1.4-1.7,2.1-2.8,3.5c0.3-1.7,0.3-2.8,0.7-4.5c-1.4-0.7-2.1-0.7-3.1-1.4c1.4-0.7,2.1-1,3.5-1.4
		C63.8,325.1,63.8,324,64.2,322.3"/>
	<path class="st7" d="M77,319.2c0.7,1.4,1,2.1,1.7,3.8c1.4,0,2.1-0.3,3.8-0.3c-1,1-1.7,1.7-2.8,2.8c0.7,1.4,1,2.1,1.4,3.8
		c-1.4-0.7-2.1-1-3.5-1.7c-1,1-1.7,1.7-2.8,2.8c0.3-1.7,0.3-2.4,0.7-4.2c-1.4-0.7-2.1-1-3.1-1.7c1.4-0.3,2.1-0.7,3.8-0.7
		C76.3,321.6,76.3,320.9,77,319.2"/>
	<path class="st7" d="M90.5,323.3c0.3,1.7,1,2.4,1.4,4.2c1.4-0.3,2.1-0.7,3.5-1c-1.4,1.7-1.7,2.4-2.8,3.8c0.3,1.7,0.7,2.4,1,4.2
		c-1-0.7-1.7-1-3.1-2.1c-1.4,1-2.1,1.4-2.8,1.7c0.3-1.4,0.3-2.1,1-3.5c-1-1.4-1.4-2.1-2.4-3.5c1.4,0.7,1.7,0.7,3.1,1
		C89.8,326.1,89.8,325.4,90.5,323.3"/>
	<path class="st7" d="M102.6,318.5c0.3,1.7,0.7,2.4,1,3.8c1.4-0.7,2.4-1.4,3.8-2.4c-1.4,2.1-2.1,3.1-3.5,4.8c0.3,1.7,0.7,2.4,1,4.2
		c-1-0.3-1.7-0.7-3.1-1c-1.4,1.7-1.7,2.8-3.1,4.2c0.3-2.1,0.7-3.1,1-4.8c-1-0.7-1.7-1-2.8-1.4c1.4-0.7,2.1-1,3.5-1.7
		C101.9,321.3,101.9,320.2,102.6,318.5"/>
	<path class="st7" d="M115.4,309.1c0.3,1.7,0.7,2.4,1,3.8c1.4-1.4,2.1-1.7,3.5-3.1c-1,2.4-1.7,3.5-3.1,5.5c0.3,1.7,0.3,2.4,0.7,4.2
		c-1,0-1.7-0.3-2.8-0.3c-1.4,2.1-1.7,3.1-3.1,4.8c0.7-2.4,0.7-3.5,1.4-5.5c-1-0.3-1.7-0.7-2.8-1c1.4-1,2.1-1.7,3.5-2.8
		C114.7,312.3,115.4,311.2,115.4,309.1"/>
	<path class="st8" d="M142.4,365.9c0,3.8,0.7,6.2,2.4,8c1.7,1.7,3.5,2.8,5.2,2.8c1.7,0,4.2-1,5.2-2.8c1.4-1.7,2.4-4.5,2.4-8
		c0-4.2-0.7-6.6-2.4-8.7c-1.4-1.7-3.5-2.8-5.5-2.8s-4.2,1-5.2,2.8C143.1,359.7,142.4,362.5,142.4,365.9 M157.6,380.5v-3.8
		c-1.7,2.8-4.5,4.5-8,4.5c-2.4,0-4.5-0.7-6.2-2.1c-2.1-1.4-3.5-3.1-4.5-5.2c-1-2.4-1.7-4.5-1.7-7.6c0-2.8,0.3-5.2,1.4-7.6
		c1-2.4,2.4-4.2,4.5-5.2c2.1-1.4,4.2-1.7,6.2-1.7c1.7,0,3.5,0.3,4.5,1c1.4,0.7,2.4,1.7,3.5,2.8v-13.8h4.5v39.1L157.6,380.5
		L157.6,380.5z"/>
	<path class="st8" d="M170.8,363.8h15.6c-0.3-2.4-0.7-4.2-1.7-5.2c-1.7-2.1-3.8-2.8-5.9-2.8c-2.4,0-4.2,0.7-5.5,2.4
		C171.5,359,170.8,361.1,170.8,363.8 M186.4,371.5l4.8,0.7c-0.7,3.1-2.4,4.8-4.5,6.6s-4.5,2.4-8,2.4c-4.2,0-7.3-1.4-10-3.8
		c-2.4-2.8-3.8-5.9-3.8-10.7c0-4.5,1.4-8.3,3.8-11.1c2.4-2.8,5.5-4.2,9.7-4.2c3.8,0,6.9,1.4,9.3,4.2c2.4,2.8,3.8,6.2,3.8,11.1
		c0,0.3,0,0.7,0,1.4h-21.1c0.3,3.1,1,5.2,2.8,6.9c1.7,1.7,3.8,2.4,5.9,2.4c1.7,0,3.5-0.3,4.5-1.4
		C184.6,374.6,185.7,373.5,186.4,371.5"/>
	<path class="st8" d="M218.9,380.5l-15.2-39.1h5.5l10,28.4c0.7,2.4,1.7,4.5,2.1,6.2c0.7-2.1,1.4-4.5,2.1-6.2l10.7-28.4h5.2
		l-15.2,39.1H218.9z"/>
	<path class="st8" d="M244.5,363.8h15.6c-0.3-2.4-0.7-4.2-1.7-5.2c-1.7-2.1-3.5-2.8-5.9-2.8c-2.4,0-4.2,0.7-5.5,2.4
		C245.6,359,245.2,361.1,244.5,363.8 M260.5,371.5l4.8,0.7c-0.7,3.1-2.4,4.8-4.5,6.6s-4.5,2.4-8,2.4c-4.2,0-7.3-1.4-10-3.8
		c-2.4-2.4-3.8-5.5-3.8-10.4c0-4.5,1.4-8.3,3.8-11.1c2.4-2.8,5.5-4.2,9.7-4.2c3.8,0,6.9,1.4,9.3,4.2c2.4,2.8,3.8,6.2,3.8,11.1
		c0,0.3,0,0.7,0,1.4h-21.1c0.3,3.1,1,5.2,2.8,6.9c1.7,1.7,3.8,2.4,5.9,2.4c1.7,0,3.5-0.3,4.5-1.4
		C259.1,374.6,259.8,373.5,260.5,371.5"/>
	<path class="st8" d="M269.5,380.5v-28.4h4.2v4.2c2.1-3.1,4.8-4.5,9-4.5c1.7,0,3.5,0.3,4.5,1c1.4,0.7,2.8,1.4,3.5,2.4
		c0.7,1,1.4,2.4,1.4,3.8c0.3,1,0.3,2.4,0.3,4.5v17.3h-4.8v-17.3c0-2.1-0.3-3.5-0.7-4.5s-1-1.7-2.1-2.4c-1-0.7-2.1-1-3.5-1
		c-2.1,0-3.8,0.7-5.2,2.1c-1.4,1.4-2.4,4.2-2.4,7.3v15.2L269.5,380.5C269.5,380.1,269.5,380.5,269.5,380.5z"/>
	<path class="st8" d="M300.6,363.8h15.6c-0.3-2.4-0.7-4.2-1.7-5.2c-1.7-2.1-3.8-2.8-5.9-2.8c-2.4,0-4.2,0.7-5.5,2.4
		C301.7,359,300.6,361.1,300.6,363.8 M316.2,371.5l4.8,0.7c-0.7,3.1-2.4,4.8-4.5,6.6c-2.1,1.7-4.5,2.4-8,2.4c-4.2,0-7.3-1.4-10-3.8
		c-2.4-2.8-3.8-5.9-3.8-10.7c0-4.5,1.4-8.3,3.8-11.1c2.4-2.8,5.5-4.2,9.7-4.2c3.8,0,6.9,1.4,9.3,4.2c2.4,2.8,3.8,6.2,3.8,11.1
		c0,0.3,0,0.7,0,1.4h-21.5c0.3,3.1,1,5.2,2.8,6.9c1.7,1.7,3.8,2.4,5.9,2.4c1.7,0,3.5-0.3,4.5-1.4
		C314.8,374.6,315.9,373.5,316.2,371.5"/>
	<path class="st8" d="M322.4,380.5v-4.2l18-20.8c-2.1,0-4.2,0-5.2,0h-11.8v-3.8h22.9v3.5l-15.2,18l-3.1,3.5c2.1,0,4.2-0.3,5.9-0.3
		H347v4.2C347,380.5,322.4,380.5,322.4,380.5z"/>
	<path class="st8" d="M368.1,380.5v-4.2c-2.4,3.5-5.2,4.5-9,4.5c-1.7,0-3.5-0.3-4.5-1c-1.4-0.7-2.4-1.4-3.5-2.4
		c-0.7-1-1.4-2.4-1.4-3.8c-0.3-1-0.3-2.4-0.3-4.5v-17.7h4.5V367c0,2.8,0,4.5,0.3,4.8c0.3,1.4,1,2.4,2.1,3.1c1,0.7,2.4,1,3.8,1
		s2.8-0.3,4.2-1c1.4-0.7,2.1-1.7,2.8-3.1s0.7-3.1,0.7-5.5v-14.9h4.5v28.4h-4.2V380.5z"/>
	<path class="st8" d="M380.9,363.8h15.6c-0.3-2.4-0.7-4.2-1.7-5.2c-1.7-2.1-3.8-2.8-5.9-2.8c-2.4,0-4.2,0.7-5.5,2.4
		C382,359,380.9,361.1,380.9,363.8 M397.2,371.5l4.8,0.7c-0.7,3.1-2.4,4.8-4.5,6.6c-2.1,1.7-4.5,2.4-8,2.4c-4.2,0-7.3-1.4-9.7-3.8
		c-2.4-2.8-3.8-5.9-3.8-10.7c0-4.5,1.4-8.3,3.8-11.1c2.4-2.8,5.5-4.2,9.7-4.2c3.8,0,6.9,1.4,9.3,4.2c2.4,2.8,3.8,6.2,3.8,11.1
		c0,0.3,0,0.7,0,1.4h-21.1c0.3,3.1,1,5.2,2.8,6.9c1.7,1.7,3.8,2.4,5.9,2.4c1.7,0,3.5-0.3,4.5-1.4
		C395.1,374.6,396.2,373.5,397.2,371.5"/>
	<rect x="405.2" y="341.3" class="st8" width="4.5" height="39.1"/>
	<path class="st8" d="M433.2,365.9c-1.7,0.7-4.5,1.4-7.6,1.7c-2.1,0.3-3.5,0.7-4.5,1c-0.7,0.3-1.4,1-2.1,1.7
		c-0.3,0.7-0.7,1.4-0.7,2.4c0,1.4,0.3,2.4,1.4,3.5c1,1,2.4,1.4,4.5,1.4c2.1,0,3.5-0.3,4.8-1.4c1.4-0.7,2.4-2.1,3.5-3.5
		c0.7-1,0.7-2.8,0.7-4.5C433.6,368.7,433.6,365.9,433.2,365.9z M433.6,376.7c-1.7,1.7-3.5,2.8-4.8,3.5s-3.5,1-5.2,1
		c-3.1,0-5.2-0.7-6.9-2.4c-1.7-1.7-2.8-3.5-2.8-5.5c0-1.4,0.3-2.8,1-3.8c0.7-1,1.4-2.1,2.4-2.8c1-0.7,2.4-1.4,3.5-1.7
		c1-0.3,2.4-0.3,4.5-0.7c4.2-0.3,6.6-1,8.7-1.7c0-0.7,0-1,0-1.4c0-2.1-0.3-3.5-1.4-4.2c-1.4-1-3.1-1.7-5.2-1.7
		c-2.1,0-4.2,0.3-4.8,1.4c-1,0.7-2.1,2.4-2.4,4.5l-4.5-0.7c0.3-2.1,1-3.8,2.1-4.8c1-1.4,2.4-2.4,4.5-3.1s4.2-1,6.2-1
		c2.4,0,4.5,0.3,5.9,1s2.8,1.4,3.5,2.1c0.7,1,1.4,2.1,1.4,3.5c0,0.7,0.3,2.4,0.3,4.5v6.2c0,4.5,0,7.3,0.3,8.3
		c0.3,1.4,0.7,2.4,1.4,3.5h-4.8C433.6,379.4,433.6,378,433.6,376.7"/>
	<path class="st8" d="M158,319.9v-4.5h16.6v14.2c-2.8,2.1-4.8,3.8-8,4.5c-2.8,1-5.2,1.7-8.3,1.7c-4.2,0-7.3-0.7-10.4-2.4
		c-3.1-1.7-5.2-4.2-6.9-6.9c-1.7-3.1-2.4-6.6-2.4-10.4c0-3.8,0.7-7.3,2.4-10.7c1.7-3.5,4.2-5.5,6.9-7.3c3.1-1.7,6.2-2.4,10.4-2.4
		c2.8,0,5.2,0.3,7.6,1.4c2.4,1,4.2,2.4,5.2,3.8c1.4,1.7,2.4,3.8,3.1,6.2l-4.8,1.4c-0.7-2.1-1.4-3.8-2.4-4.5c-1-1-2.1-2.1-3.8-2.8
		c-1.7-0.7-3.5-1-5.2-1c-2.4,0-4.5,0.3-5.9,1c-1.7,0.7-3.1,1.7-4.5,2.8c-1,1.4-2.1,2.4-2.4,4.2c-1,2.4-1.4,4.8-1.4,8
		c0,3.5,0.7,6.2,1.7,8.7c1.4,2.4,3.1,4.2,5.2,5.2c2.4,1,4.5,1.7,7.3,1.7c2.4,0,4.5-0.3,6.6-1.4c2.1-1,3.8-1.7,4.8-2.8v-7.3
		L158,319.9L158,319.9z"/>
	<path class="st8" d="M182.2,321.3c0,3.8,0.7,6.2,2.4,8c1.7,1.7,3.8,2.8,5.9,2.8c2.1,0,4.5-1,5.9-2.8c1.7-1.7,2.4-4.5,2.4-8.3
		c0-3.5-0.7-5.9-2.4-8c-1.7-1.7-3.8-2.8-5.9-2.8c-2.1,0-4.5,1-5.9,2.8C182.9,315,182.2,317.8,182.2,321.3 M177,321.3
		c0-5.2,1.4-9,4.5-11.8c2.4-2.1,5.2-3.1,9-3.1c4.2,0,6.9,1.4,9.7,3.8c2.4,2.8,3.8,5.9,3.8,10.7c0,3.8-0.7,6.6-1.7,8.7
		c-1,2.1-3.1,3.8-4.8,5.2c-2.1,1-4.5,1.7-6.6,1.7c-4.2,0-6.9-1.4-9.7-3.8C178.8,329.6,177,326.1,177,321.3"/>
	<path class="st8" d="M211.3,320.9c0,3.5,0.3,5.5,1.4,7.3c1.7,2.4,3.8,3.8,5.9,3.8c2.1,0,4.2-1,5.2-2.8c1.7-1.7,2.4-4.5,2.4-8
		c0-3.8-0.7-6.2-2.4-8.3c-1.4-1.7-3.5-2.8-5.2-2.8c-1.7,0-4.2,1-5.2,2.8C212.3,315,211.3,317.8,211.3,320.9 M211.6,335.5h-4.5v-39.1
		h4.5v13.8c2.1-2.8,4.5-3.8,7.6-3.8c1.7,0,3.5,0.3,4.8,1c1.4,0.7,3.1,1.7,4.2,3.1c1,1.4,1.7,2.8,2.4,4.5s1,3.8,1,5.5
		c0,4.8-1.4,8.7-3.8,11.4c-2.4,2.8-5.2,4.2-8.7,4.2s-5.9-1.4-8-4.5C211.6,332,211.6,335.5,211.6,335.5z"/>
	<path class="st8" d="M234.2,307.1h4.5v28.4h-4.5V307.1z M234.2,296.3h4.5v5.5h-4.5C234.2,301.9,234.2,296.3,234.2,296.3z"/>
	<path class="st8" d="M247.7,318.8h15.9c-0.3-2.4-0.7-4.2-1.7-5.2c-1.7-2.1-3.8-2.8-5.9-2.8c-2.1,0-4.2,0.7-5.5,2.4
		C248.7,314,248,316.1,247.7,318.8 M263.2,326.5l4.8,0.7c-0.7,3.1-2.4,4.8-4.5,6.6s-4.5,2.4-8,2.4c-4.2,0-7.3-1.4-10-3.8
		c-2.4-2.8-3.8-5.9-3.8-10.7c0-4.8,1.4-8.3,3.8-11.1c2.4-2.8,5.5-4.2,9.7-4.2c3.8,0,6.9,1.4,9.3,4.2c2.4,2.8,3.8,6.2,3.8,11.1
		c0,0.3,0,0.7,0,1.4h-21.1c0.3,3.1,1,5.2,2.8,6.9c1.7,1.7,3.8,2.4,5.9,2.4c1.7,0,3.5-0.3,4.5-1.4
		C261.5,329.6,262.5,328.5,263.2,326.5"/>
	<path class="st8" d="M271.9,335.5v-28.4h4.5v4.5c1-2.1,2.1-3.5,3.1-4.2s2.1-1,3.1-1c1.7,0,3.5,0.7,4.8,1.7l-1.7,4.5
		c-1.4-0.7-2.4-1-3.8-1c-1,0-2.1,0.3-2.8,1c-0.7,0.7-1.4,1.4-1.7,2.8c-0.3,1.7-0.3,3.8-0.3,5.5v14.5
		C277.1,335.5,271.9,335.5,271.9,335.5z"/>
	<path class="st8" d="M287.8,335.5v-28.4h4.5v4.2c2.1-3.1,4.8-4.5,9-4.5c1.7,0,3.5,0.3,4.5,1c1.4,0.7,2.8,1.4,3.5,2.4
		c0.7,1,1.4,2.4,1.4,3.8c0.3,1,0.3,2.4,0.3,4.5v17.3h-4.5v-17.3c0-2.1-0.3-3.5-0.7-4.5c-0.3-1-1-1.7-2.1-2.4c-1-0.7-2.1-1-3.5-1
		c-2.1,0-3.8,0.7-5.2,2.1c-1.4,1.4-2.4,3.8-2.4,7.3v15.6C293,335.8,287.8,335.8,287.8,335.5z"/>
	<path class="st8" d="M318.6,321.3c0,3.8,0.7,6.2,2.4,8c1.7,1.7,3.8,2.8,5.9,2.8c2.1,0,4.5-1,5.9-2.8c1.4-1.7,2.4-4.5,2.4-8.3
		c0-3.5-0.7-5.9-2.4-8c-1.7-1.7-3.8-2.8-5.9-2.8c-2.4,0-4.5,1-5.9,2.8C319.7,315,318.6,317.8,318.6,321.3 M314.5,321.3
		c0-5.2,1.4-9,4.5-11.8c2.4-2.1,5.2-3.1,9-3.1c4.2,0,6.9,1.4,9.7,3.8c2.4,2.8,3.8,5.9,3.8,10.7c0,3.8-0.7,6.6-1.7,8.7
		c-1,2.1-2.8,3.8-4.5,4.8c-2.1,1-4.5,1.7-6.6,1.7c-4.2,0-6.9-1.4-9.7-3.8C315.2,329.6,314.5,326.1,314.5,321.3"/>
	<path class="st9" d="M364.3,318.5v10.4h7.3c3.1,0,4.5,0,5.2-0.3c1.4-0.3,2.1-0.7,3.1-1.7c0.7-1,1-2.1,1-3.5c0-1-0.3-2.1-1-3.1
		c-0.7-0.7-1.4-1.4-2.4-1.7s-3.5-0.7-6.9-0.7L364.3,318.5L364.3,318.5z M364.3,302.9v9h4.8c3.1,0,4.8,0,5.5,0
		c1.4-0.3,2.4-0.7,3.1-1.4s1-1.7,1-3.1c0-1.4-0.3-2.4-1-3.1c-0.7-0.7-1.7-1.4-3.1-1.4c-0.7,0-3.1,0-6.6,0H364.3L364.3,302.9z
		 M356.4,296.3h15.6c3.1,0,5.2,0,6.9,0.3c1.7,0.3,3.1,0.7,4.2,1.7c1.4,0.7,2.4,2.1,3.1,3.5c0.7,1.4,1.4,3.1,1.4,4.5
		c0,2.1-0.7,3.8-1.7,4.8c-1,1.7-2.4,2.8-4.2,3.5c2.4,0.7,4.5,2.1,5.5,3.8c1.4,1.7,2.1,3.8,2.1,5.9c0,1.7-0.3,3.8-1.4,5.2
		c-0.7,1.7-2.1,3.1-3.5,4.2s-3.5,1.7-5.2,1.7c-1.4,0-4.5,0.3-9.7,0.3H356C356.4,335.8,356.4,296.3,356.4,296.3z"/>
	<path class="st9" d="M399.3,321.3c0,2.8,0.7,4.8,2.1,6.2c1.4,1.4,3.1,2.4,4.8,2.4c2.1,0,3.8-0.7,4.8-2.4c1.4-1.4,2.1-3.8,2.1-6.2
		c0-2.4-0.7-4.8-2.1-6.2c-1.4-1.4-3.1-2.4-4.8-2.4c-2.1,0-3.8,0.7-4.8,2.4C400,316.4,399.3,318.5,399.3,321.3 M391.7,320.9
		c0-2.4,0.7-4.8,2.1-7.3c1.4-2.4,3.1-4.2,5.2-5.2c2.1-1,4.5-2.1,7.6-2.1c4.5,0,7.6,1.4,10.7,4.5c2.8,2.8,4.2,6.2,4.2,10.7
		c0,4.5-1.4,7.6-4.2,10.7c-2.8,2.8-6.2,4.5-10.4,4.5c-2.8,0-4.8-0.7-7.3-1.7c-2.4-1.4-4.2-3.1-5.2-4.8
		C392.4,327.1,391.7,324,391.7,320.9"/>
	<rect x="424.2" y="296.3" class="st9" width="7.3" height="39.1"/>
	<path class="st9" d="M437,307.1h7.3v28.4H437C437.4,335.5,437.4,307.1,437,307.1z M437,296.3h7.3v6.9H437
		C437.4,303.3,437.4,296.3,437,296.3z"/>
	<path class="st9" d="M457.5,335.5L446,307.1h8l5.2,14.2l1.7,4.5c0.3-1.4,0.7-2.1,0.7-2.4c0.3-0.7,0.7-1.7,0.7-2.4l5.2-14.2h7.6
		l-11.4,28.4C464.4,335.5,457.5,335.5,457.5,335.5z"/>
	<path class="st9" d="M493.1,321.6c-1,0.3-2.4,0.7-4.5,1c-2.1,0.3-3.5,1-4.2,1.4c-1,0.7-1.4,1.7-1.4,2.8c0,1,0.3,2.1,1,2.8
		c0.7,0.7,1.7,1,3.1,1s2.8-0.3,4.2-1.4c1-0.7,1.4-1.7,1.7-2.4c0.3-0.7,0.3-2.1,0.3-3.8L493.1,321.6L493.1,321.6z M483.4,315.7
		l-6.6-1.4c0.7-2.8,2.1-4.5,4.2-5.9c2.1-1.4,4.5-2.1,8.3-2.1c3.5,0,5.5,0.3,7.3,1.4c1.7,0.7,2.8,1.7,3.5,3.1c0.7,1.4,1,3.5,1,6.6
		v8.7c0,2.4,0,4.5,0.3,5.5c0.3,1.4,0.7,2.4,1.4,3.8h-7.3c-0.3-0.3-0.3-1.4-0.7-2.4c0-0.3-0.3-0.7-0.3-1c-1.4,1.4-2.8,2.4-4.2,2.8
		c-1.4,0.7-3.1,1-4.5,1c-3.1,0-5.2-0.7-6.9-2.4c-1.7-1.7-2.8-3.8-2.8-5.9c0-1.7,0.3-3.1,1-4.5c0.7-1.4,1.7-2.4,3.5-3.1
		c1.4-0.7,3.5-1.4,5.9-1.7c3.5-0.7,5.9-1.4,7.3-2.1v-0.7c0-1.4-0.3-2.4-1-3.1c-0.7-0.7-2.1-1-4.2-1c-1.4,0-2.4,0.3-3.1,0.7
		C484.5,313.3,483.8,314.3,483.4,315.7"/>
	<path class="st9" d="M512.5,335.5h-7.3v-28.4h6.9v4.2c1.4-2.1,2.4-3.1,3.5-3.8c1-0.7,2.1-1,3.5-1c1.7,0,3.5,0.3,4.8,1.4l-2.4,6.6
		c-1.4-0.7-2.4-1.4-3.8-1.4c-1,0-2.1,0.3-2.8,1c-0.7,0.7-1.4,1.7-1.7,3.1c-0.3,1.7-0.7,4.5-0.7,9.3L512.5,335.5L512.5,335.5z"/>
	<path class="st9" d="M524.3,307.1h7.3v28.4h-7.3V307.1z M524.3,296.3h7.3v6.9h-7.3V296.3z"/>
	<path class="st9" d="M552.7,321.6c-1,0.3-2.4,0.7-4.5,1s-3.5,1-4.2,1.4c-1,0.7-1.4,1.7-1.4,2.8c0,1,0.3,2.1,1.4,2.8
		c0.7,0.7,1.7,1,3.1,1c1.4,0,2.8-0.3,4.2-1.4c1-0.7,1.4-1.7,1.7-2.4s0.3-2.1,0.3-3.8L552.7,321.6L552.7,321.6z M542.3,315.7
		l-6.6-1.4c0.7-2.8,2.1-4.5,4.2-5.9s4.5-2.1,8.3-2.1c3.5,0,5.5,0.3,7.3,1.4c1.7,0.7,2.8,1.7,3.5,3.1s1,3.5,1,6.6v8.7
		c0,2.4,0,4.5,0.3,5.5c0.3,1.4,0.7,2.4,1.4,3.8h-7.3c-0.3-0.3-0.3-1.4-0.7-2.4c0-0.3-0.3-0.7-0.3-1c-1.4,1.4-2.8,2.4-4.2,2.8
		c-1.4,0.7-3.1,1-4.5,1c-3.1,0-5.2-0.7-6.9-2.4c-1.7-1.7-2.4-3.8-2.4-5.9c0-1.7,0.3-3.1,1-4.5s2.1-2.4,3.5-3.1
		c1.4-0.7,3.5-1.4,5.9-1.7c3.5-0.7,5.9-1.4,7.3-2.1v-0.7c0-1.4-0.3-2.4-1-3.1c-0.7-0.7-2.1-1-4.2-1c-1.4,0-2.4,0.3-3.1,0.7
		C543.7,313.3,542.6,314.3,542.3,315.7"/>
	<path class="st9" d="M590.8,335.5h-7.3v-14.2c0-3.1,0-4.8-0.3-5.9s-1-1.7-1.7-2.1c-0.7-0.3-1.7-0.7-2.8-0.7c-1.4,0-2.4,0.3-3.5,1
		c-1,0.7-1.7,1.7-2.1,2.8c-0.3,1.4-0.7,3.5-0.7,6.2v13.2h-7.3v-28.4h6.9v4.2c2.4-3.5,5.5-4.5,9.3-4.5c1.7,0,3.1,0.3,4.5,1
		s2.4,1.4,3.1,2.4c0.7,1,1.4,2.1,1.4,3.1c0.3,1.4,0.3,3.1,0.3,4.8L590.8,335.5L590.8,335.5z"/>
	<path class="st9" d="M601.5,321.3c0,2.8,0.7,4.8,2.1,6.2c1.4,1.4,3.1,2.4,4.8,2.4c2.1,0,3.8-0.7,4.8-2.4c1.4-1.4,2.1-3.8,2.1-6.2
		c0-2.4-0.7-4.8-2.1-6.2c-1.4-1.4-3.1-2.4-4.8-2.4c-2.1,0-3.8,0.7-4.8,2.4C602.2,316.4,601.5,318.5,601.5,321.3 M594.2,320.9
		c0-2.4,0.7-4.8,1.7-7.3c1.4-2.4,3.1-4.2,5.2-5.2c2.4-1.4,4.5-2.1,7.6-2.1c4.5,0,7.6,1.4,10.7,4.5c2.8,2.8,4.2,6.2,4.2,10.7
		c0,4.5-1.4,7.6-4.2,10.7c-2.8,2.8-6.2,4.5-10.4,4.5c-2.8,0-4.8-0.7-7.3-1.7c-2.4-1.4-4.2-3.1-5.2-4.8
		C594.6,327.1,594.2,324,594.2,320.9"/>
</g>
</svg>
