<?xml version="1.0" standalone="yes"?>
<svg width="509" height="679">
<path style="fill:#000000; stroke:none;" d="M0 0L0 617C8.55195 610.849 15.3735 600.94 22.2816 593C34.2377 579.258 46.5733 565.832 58.4205 552C64.7054 544.662 72.0347 532.701 80.2855 527.708C83.1572 525.971 86.2581 527.868 89 528.989C94.8867 531.396 109.766 534.384 112.882 540.275C116.189 546.526 109.169 564.156 107.8 571C104.064 589.677 100.312 608.376 96.3387 627C94.3585 636.282 90.1557 647.545 91 657L57 644L60 631C49.1519 625.926 39.5895 619.773 33 633L0 620L0 679L188 679L188 678C184.615 677.93 181.351 677.466 178 677C155.117 673.818 177.506 643.48 172.393 630.044C170.791 625.834 160.652 621.438 157.164 625.604C152.748 630.879 152.921 645.274 151.75 652C150.53 659.009 149.354 666.016 148 673L118 669L140 546C161.562 552.818 197.372 545.619 209.481 570C217.932 587.014 205.836 601.552 201.831 617C200.761 621.128 203.554 625.814 203.79 630C204.119 635.822 202.29 642.298 201.197 648C200.003 654.23 193.472 673.308 199.589 677.972C202.104 679.89 207.04 679 210 679L235 679L229 559C248.116 559 274.748 552.429 292 562.764C308.897 572.886 314.7 605.774 295 616L295 617C313.834 623.403 312.947 654.864 300.957 666.96C288.763 679.261 269.993 678 254 678L254 679L509 679L509 609C498.194 611.472 486.644 619.526 477 625C473.429 627.027 467.257 631.893 463.04 631.698C456.468 631.393 448.317 613.094 445.05 608C429.187 583.266 412.424 558.995 397 534L423 521L438.142 546L473 600L498 588L508 605L509 605L509 0L0 0z"/>
<path style="fill:#ce5d37; stroke:none;" d="M214 30L224 29L223 19C214.174 19.0068 212.377 21.2504 214 30M290 29C299.044 30.6782 300.408 28.537 302 20C293.256 19.3107 291.171 19.7916 290 29M177 26L176 84L175 84L149.611 52L138.83 40.7076L126 44L141 89L148.136 108.393L157 108L140 57C149.409 67.2159 158.037 78.3178 166.919 89C172.285 95.4534 174.993 101.277 184 99L185 39L186 39L198.308 77L203.702 89.9321L213 88L190 22L177 26M329 32L330 38L354 35C353.673 21.5085 337.621 30.8391 329 32z"/>
<path style="fill:#ffff00; stroke:none;" d="M250 33L251 34L250 33z"/>
<path style="fill:#ce5d37; stroke:none;" d="M243 71L233 72C238.268 90.2433 275.091 96.9224 278.492 74C281.93 50.837 250.872 62.6005 246.523 48.9599C245.096 44.4846 250.4 41.844 254 41.3696C259.792 40.6065 264.618 44.0153 267 49L276 48C274.106 30.5637 241.582 26.5611 236.573 44C232.721 57.4088 243.949 62.9221 255 64.9167C259.34 65.7001 266.977 66.4948 267.863 72.0146C268.653 76.9308 262.942 79.5193 259 79.8943C251.79 80.5802 245.712 77.8505 243 71z"/>
<path style="fill:#ff0000; stroke:none;" d="M354.333 33.6667L354.667 34.3333L354.333 33.6667z"/>
<path style="fill:#ce5d37; stroke:none;" d="M215 38L222 89L230.393 86.6821L229.166 72L225 36L215 38M283 89L292 90L299 38L290.024 38.6042L287.573 52L283 89z"/>
<path style="fill:#ffff00; stroke:none;" d="M288 44L289 45L288 44z"/>
<path style="fill:#ce5d37; stroke:none;" d="M323 44.5293C295.222 50.9503 296.764 104.553 329 98.4676C360.531 92.5152 358.143 36.4057 323 44.5293z"/>
<path style="fill:#000000; stroke:none;" d="M325.001 52.858C309.428 59.1693 308.275 97.6501 329.996 89.2577C345.69 83.1942 345.908 44.385 325.001 52.858z"/>
<path style="fill:#ffff00; stroke:none;" d="M150 53L151 54L150 53M308 55L309 56L308 55z"/>
<path style="fill:#000000; stroke:none;" d="M139 56L140 57L139 56z"/>
<path style="fill:#ffff00; stroke:none;" d="M340 59L341 60L340 59z"/>
<path style="fill:#ce5d37; stroke:none;" d="M370 59L346 103L346 104L355 109C359.657 99.0248 365.675 83.0494 375.015 76.7029C381.149 72.5345 391.672 74.3563 392.617 83.0008C393.938 95.0909 378.307 109.544 375 121C385.519 125.249 386.944 117.217 391.576 109C395.387 102.237 401.163 93.8555 401.896 86C403.303 70.922 388.928 63.5449 376 69L379 62L370 59z"/>
<path style="fill:#ffff00; stroke:none;" d="M218 63L219 64L218 63M148 66L149 67L148 66M294 72L295 73L294 72M313 81L314 82L313 81M245 86L246 87L245 86z"/>
<path style="fill:#ffffff; stroke:none;" d="M212 88L213 89L212 88z"/>
<path style="fill:#ff00ff; stroke:none;" d="M363 92L364 93L363 92z"/>
<path style="fill:#f0f096; stroke:none;" d="M237 100L237 101L242 101L237 100z"/>
<path style="fill:#669249; stroke:none;" d="M230 102L230 103L283 103C268.242 95.9079 245.583 100.031 230 102z"/>
<path style="fill:#fefe8b; stroke:none;" d="M271.667 100.333L272.333 100.667L271.667 100.333z"/>
<path style="fill:#ffffff; stroke:none;" d="M273.667 100.333L274.333 100.667L273.667 100.333z"/>
<path style="fill:#ffff00; stroke:none;" d="M385 100L386 101L385 100z"/>
<path style="fill:#d9e084; stroke:none;" d="M234 102C226.698 99.1498 213.462 103.542 206 105.374C180.583 111.616 156.775 121.79 135 136.333C45.5996 196.043 12.9101 317.902 61.7562 414C76.5553 443.115 97.4197 468.004 123 488.196C132.514 495.706 144.258 506.609 157 503.244C184.13 496.078 199.837 469.322 204.13 443C205.003 437.651 208.74 427.575 206.382 422.419C204.907 419.193 198.982 418.225 196 416.988C187.703 413.548 179.688 409.439 172 404.796C150.5 391.814 131.55 373.201 118.054 352C100.165 323.898 89.798 287.431 92.0895 254C97.277 178.318 158.854 112.119 234 102z"/>
<path style="fill:#4b823e; stroke:none;" d="M208 421C208 408.508 209.25 395.271 206.486 383C204.363 373.575 198.156 365.817 197.171 356C195.7 341.348 201.888 327.435 199.196 313C197.274 302.693 196.01 292.298 194.001 282C193.401 278.927 191.704 273.15 194.6 270.712C200.738 265.543 202.908 284.174 203.487 287C206.599 302.204 208.696 318.39 214.26 333C216.482 338.835 222.507 343.975 229 343.722C236.123 343.445 247.169 336.702 248.046 329C248.516 324.876 242.757 316.485 250.059 314.827C252.572 314.257 264.841 314.549 266.396 316.333C270.154 320.645 264.908 325.422 266.071 330C268.995 341.512 284.638 346.531 293.985 340.146C299.948 336.072 300.69 329.483 302.377 323C305.493 311.03 308.126 299.129 310.551 287C311.241 283.55 312.014 268.805 317.871 270.461C321.844 271.585 320.678 277.098 320.271 280C318.954 289.371 317.152 298.667 315.586 308C312.862 324.241 318.545 338.955 316.826 355C315.71 365.422 309.695 373.984 307.336 384C304.623 395.523 306 408.236 306 420C324.193 418.177 343.995 404.492 358 393.576C407.196 355.227 436.183 279.755 414 219L413 219C412.045 221.979 411.335 225.394 409.437 227.941C400.597 239.803 387.838 221.604 403.001 217.434C406.138 216.571 409.775 217 413 217C411.616 201.243 400.279 183.655 391.41 171C360.743 127.24 310.393 101.006 257 101C264.324 120.04 287.164 131.135 289.816 153C291.684 168.407 281.406 181.898 270 190.996C266.687 193.639 262.434 197.942 258 198.368C244.109 199.703 227.488 177.865 225.174 166C219.778 138.345 246.348 123.818 255 101C177.935 101 111.247 156.856 95.3603 232C82.1379 294.542 110.287 363.829 163 399.656C175.967 408.469 192.227 418.671 208 421z"/>
<path style="fill:#fefe96; stroke:none;" d="M278 101L278 102L283 102L278 101z"/>
<path style="fill:#a9c335; stroke:none;" d="M255.145 103.346C250.356 104.776 245.276 115.114 242.374 119C229.8 135.839 217.901 155.088 228.606 176C233.005 184.594 248.684 201.754 260 198.282C264.795 196.81 269.217 192.534 272.996 189.385C294.649 171.344 293.039 148.091 277.37 127C272.462 120.393 266.849 114.387 261.664 108.005C260.172 106.167 258.036 102.482 255.145 103.346z"/>
<path style="fill:#afc36f; stroke:none;" d="M283 102L283 103L290 104L283 102z"/>
<path style="fill:#d9e084; stroke:none;" d="M287 102L287 103C301.181 107.542 315.554 111.086 329 117.809C363.776 135.197 392.269 165.242 407.573 201C434.624 264.206 416.988 335.242 369 382.999C352.95 398.972 328.864 416.065 306 420C307.839 443.296 314.294 470.924 330.184 489C337.363 497.166 348.248 501.123 355 509C375.844 500.322 394.202 484.799 410 469C511.288 367.705 483.613 191.298 357 124.703C335.908 113.609 310.98 103.909 287 102z"/>
<path style="fill:#ffff00; stroke:none;" d="M346 104L347 105L346 104z"/>
<path style="fill:#afc633; stroke:none;" d="M197 114C193.756 128.185 187.764 146.423 206 152.896C209.035 153.973 213.745 155.532 216.815 153.933C219.627 152.468 221.462 148.798 222.637 146C230.035 128.376 210.007 119.416 197 114M317 114C311.39 117.193 305.292 119.214 300.015 123.043C291.98 128.873 285.606 147.889 298.329 153.393C314.585 160.425 324.082 139.392 321.255 127C320.227 122.497 319.572 117.897 317 114z"/>
<path style="fill:#7e8f3b; stroke:none;" d="M183 148C182.459 151.681 181.12 155.255 181.056 159C180.743 177.128 205.498 169.545 196.106 156.184C194.791 154.312 192.869 152.946 190.985 151.7C188.437 150.013 185.912 148.857 183 148M326.981 149.967C316.155 152.281 311.874 173.178 325 170.272C334.462 168.177 335.979 148.044 326.981 149.967z"/>
<path style="fill:#afc633; stroke:none;" d="M164 168C160.098 184.202 156.797 205.753 177 211.79C180.722 212.902 186.222 214.028 189.815 211.972C193.534 209.844 195.147 204.905 196.1 201C201.01 180.89 179.929 172.357 164 168M351 168C344.878 169.054 338.608 171.653 333 174.32C328.985 176.23 325.189 178.699 322.213 182.04C315.762 189.283 314.452 206.212 324.213 211.972C335.828 218.827 351.633 204.979 352.826 194C353.792 185.123 351.376 176.764 351 168z"/>
<path style="fill:#7e8f3b; stroke:none;" d="M133 183C133.018 189.517 139.287 208.858 149.142 198.397C158.599 188.358 139.361 183.132 133 183M381 183C377.992 183.008 374.907 182.89 372 183.804C351.815 190.149 375.566 212.836 379.9 191.999C380.52 189.024 380.87 186.03 381 183z"/>
<path style="fill:#435f30; stroke:none;" d="M216 192C209.793 206.405 195.757 218.989 198.21 236C199.692 246.281 214.233 263.789 226 261.538C240.737 258.718 248.371 237.805 244.377 225C240.049 211.126 225.989 203.342 218 192L216 192M297 192C281.569 207.431 257.064 229.113 275.38 251.999C278.383 255.753 283.826 261.727 289 262.1C293.962 262.457 300.337 257.365 304 254.482C326.086 237.102 312.222 209.516 297 192z"/>
<path style="fill:#a1b33e; stroke:none;" d="M146 207C146 211.005 145.752 215.087 146.761 219C147.381 221.403 148.253 223.918 149.702 225.956C161.306 242.274 179.836 217.238 160 209.969C155.664 208.38 150.539 207.936 146 207M368 208C358.65 208.077 334.862 216.172 347.843 229.397C349.634 231.221 352.642 231.076 355 230.956C367.337 230.327 367.973 217.717 368 208z"/>
<path style="fill:#afc633; stroke:none;" d="M124 209C124.351 211.388 124.803 213.715 125.634 215.997C131.052 230.862 147.511 212.758 131.002 209.344C128.722 208.873 126.313 209.006 124 209M390 209C387.706 209.002 385.266 208.81 382.999 209.228C367.351 212.118 383.255 231.587 388.891 215.986C389.72 213.693 389.89 211.407 390 209z"/>
<path style="fill:#7fa538; stroke:none;" d="M334 214L334 215L337 215L337 224L338 224L338 214L334 214z"/>
<path style="fill:#afc633; stroke:none;" d="M177 215C177.002 217.294 176.81 219.734 177.228 222.001C180.042 237.241 199.354 222.386 183.997 216.009C181.744 215.074 179.392 215.056 177 215M337 215C334.957 215.094 332.967 215.166 330.999 215.804C314.293 221.221 334.124 237.02 336.772 222.985C337.257 220.411 337 217.607 337 215z"/>
<path style="fill:#7e8f3b; stroke:none;" d="M413 216C409.366 217.074 405.604 216.435 402.004 217.434C388.291 221.239 398.907 239.142 408.697 229.682C410.549 227.892 411.254 225.359 412.069 223.001C412.949 220.458 413.714 218.573 413 216M101 217C101.676 220.277 102.204 223.939 103.652 226.981C110.672 241.73 129.073 221.058 111 217.344C107.776 216.682 104.274 217 101 217z"/>
<path style="fill:#8daf37; stroke:none;" d="M133 230L133 231L151 231L133 230z"/>
<path style="fill:#85a938; stroke:none;" d="M364 230L364 231L378 231L364 230z"/>
<path style="fill:#afc633; stroke:none;" d="M127 231C129.786 239.566 131.423 251.195 138.213 257.66C144.013 263.181 160.017 264.256 164.972 256.606C170.068 248.738 163.49 236.032 156 232.653C147.769 228.939 135.836 231 127 231M387 231C378.834 231 368.927 229.478 361 231.558C351.64 234.014 342.993 248.648 349.938 257.501C358.67 268.632 376.607 259.963 381.134 250C383.862 243.997 385.531 237.41 387 231z"/>
<path style="fill:#a1b33e; stroke:none;" d="M171 235C174.134 251.636 178.42 258.627 196 255C198.264 237.087 186.259 235 171 235M343 235C338.422 235 333.52 234.513 329 235.329C321.461 236.691 313.612 246.906 319.028 254.486C325.604 263.689 338.618 253.035 340.636 246C341.7 242.29 342.802 238.871 343 235z"/>
<path style="fill:#7e8f3b; stroke:none;" d="M106 248C107.231 253.966 115.287 273.682 123.972 261.486C132.014 250.193 112.047 248.001 106 248M408 248C404.74 248 401.217 247.641 398 248.228C378.013 251.877 399.369 276.945 406.485 256C407.398 253.314 407.856 250.82 408 248z"/>
<path style="fill:#9bb664; stroke:none;" d="M92 250L92 272L93 272L92 250z"/>
<path style="fill:#9fb966; stroke:none;" d="M420 254L420 270L421 270L420 254z"/>
<path style="fill:#88b53d; stroke:none;" d="M257 256C252.02 262.56 244.972 268.835 242.638 277C240.199 285.533 247.298 299.803 257 300.483C269.346 301.348 275.23 284.357 271.521 275C268.749 268.008 263.345 262.049 259 256L257 256z"/>
<path style="fill:#a1b33e; stroke:none;" d="M133 268C133.84 272.059 134.811 276.183 136.468 280C137.389 282.12 138.539 284.149 140.214 285.772C153.684 298.824 168.88 272.101 148 268.329C143.167 267.457 137.897 268 133 268M381 268C376.126 268 370.813 267.403 366 268.225C347.512 271.379 358.383 298.831 373.787 286.347C375.815 284.703 377.097 282.379 378.069 279.999C379.618 276.21 380.456 272.038 381 268z"/>
<path style="fill:#9a6b5e; stroke:none;" d="M150 504C153.501 509.704 163.936 512.263 170.015 514.708C185.367 520.882 199.093 527.666 216 529C213.106 509.401 211.423 493.95 213 474L212 474C209.039 481.111 205.372 487.474 199 492C199 475.565 205.038 460.561 217.004 449.04C221.144 445.054 228.236 437.833 233.787 443.164C247.887 456.703 234.68 493.78 259 494L259 492C242.257 491.083 248.029 469.164 263 478C263.001 467.995 264.913 458.023 263.715 448C260.805 423.668 253 401.674 253 377C253 359.117 262.985 344.018 250 329C243.52 333.956 239.609 341.402 231 343.199C212.171 347.13 208.003 310.261 205.551 298C203.987 290.181 203.501 281.634 201.057 274.044C200.225 271.46 196.753 267.313 194.027 270.619C191.283 273.947 193.661 281.301 194.4 285C196.648 296.264 199.472 308.523 199.961 320C200.489 332.422 195.888 344.225 197.171 357C198.408 369.33 206.224 379.535 207.715 392C212.27 430.088 198.977 501.762 150 504z"/>
<path style="fill:#6f4e44; stroke:none;" d="M259 493C277.097 491.034 271.941 458.994 286 449L286 448C274.666 446.831 268.278 431.578 282.004 427.747C295.075 424.099 294.921 441.282 287 447L287 448C300.192 451.918 311.827 470.65 313 484L304 475L303 475L310 505L306 505L300 529C318.008 527.529 340.015 518.883 355 509L355 507C315.1 483.69 300.807 435.473 306.286 391C307.808 378.645 315.501 368.371 316.826 356C318.118 343.939 313.783 332.839 314.015 321C314.251 309.022 317.901 296.817 319.725 285C320.305 281.245 322.338 274.755 319.972 271.333C314.591 263.55 311.552 280.404 311.083 283C308.707 296.176 305.747 309.054 302.377 322C300.527 329.11 299.564 335.738 292.996 340.146C278.975 349.556 267.731 333.28 260.667 322.985C258.331 319.582 252.715 310.605 247.603 315.607C239.476 323.56 258.401 336.379 257.657 345C256.075 363.311 250.834 380.102 253.289 399C256.493 423.655 264.818 444.593 263.09 470C262.383 480.391 264.275 483.562 259 493z"/>
<path style="fill:#9a6b5e; stroke:none;" d="M213 314C220.543 309.403 224.187 291.086 227.765 283C228.772 280.727 231.592 275.059 228.436 273.176C224.573 270.872 220.667 280.726 219.522 283C217.025 287.962 210.756 293.53 209.968 299C209.314 303.532 212.615 309.29 213 314z"/>
<path style="fill:#6f4e44; stroke:none;" d="M300 314C307.143 300.664 301.49 294.849 295.255 283C293.95 280.518 289.776 270.745 285.615 273.176C282.448 275.026 286.336 281.802 287.281 284C291.537 293.901 294.94 304.499 300 314z"/>
<path style="fill:#82a658; stroke:none;" d="M93 277L93 283L94 283L93 277z"/>
<path style="fill:#7e8f3b; stroke:none;" d="M110 279C110.967 282.617 111.889 286.637 113.569 289.995C121.573 306.002 140.158 283.803 121 279.394C117.489 278.586 113.581 279 110 279M403 280C399.737 280 396.23 279.645 393 280.148C374.245 283.072 394.561 308.889 401.891 287.999C402.812 285.375 402.941 282.748 403 280z"/>
<path style="fill:#afc633; stroke:none;" d="M144 296C145.103 301.331 146.407 306.953 148.475 312C151.854 320.246 168.16 328.369 174.972 318.501C180.748 310.135 172.355 298.211 164 296.39C157.721 295.023 150.408 296 144 296M370 296C363.131 296 353.434 294.249 347 296.858C323.654 306.325 346.198 334.988 361.61 317.867C366.699 312.213 367.749 303.039 370 296z"/>
<path style="fill:#6f4e44; stroke:none;" d="M289 323L270 315C270.365 321.654 283.15 335.24 290.024 336.079C295.671 336.769 299.653 324.303 299.245 320C298.202 309.023 283.063 304.995 275 301.218C272.989 300.276 264.967 295.032 263.832 299.329C262.99 302.518 266.881 304.952 269.015 306.421C276.172 311.342 283.617 316.08 289 323z"/>
<path style="fill:#9a6b5e; stroke:none;" d="M226 338L245 316C236.822 316.073 231.741 319.844 225 324C230.265 316.587 247.852 310.095 250.11 301.954C252.075 294.867 239.039 301.538 237 302.316C229.303 305.256 220.514 309.355 216.434 317.001C212.629 324.134 218.743 335.945 226 338z"/>
<path style="fill:#afc633; stroke:none;" d="M101 302C102.372 307.984 103.921 314.412 106.519 319.996C110.462 328.473 126.294 333.801 132.821 324.49C139.157 315.451 128.337 304.05 120 302.379C113.964 301.169 107.14 302 101 302M413 302C406.34 302 398.475 300.859 392 302.558C383.829 304.702 374.891 317.596 381.603 325.581C388.693 334.014 403.094 327.932 407.164 320C409.955 314.562 411.425 307.891 413 302z"/>
<path style="fill:#9a6b5e; stroke:none;" d="M263 328L266 328C267.237 324.605 269.262 319.738 266.972 316.319C264.882 313.197 258.488 313.996 258.113 318.109C257.817 321.362 261.49 325.288 263 328z"/>
<path style="fill:#84a938; stroke:none;" d="M158 322L158 323L167 323L158 322z"/>
<path style="fill:#7ba339; stroke:none;" d="M346 322L346 323L354 323L346 322z"/>
<path style="fill:#afc633; stroke:none;" d="M146 333C146.125 335.434 146.327 337.705 147.287 339.986C153.623 355.05 168.94 335.997 153.996 333.228C151.415 332.75 148.614 333 146 333M368 333C365.709 333 363.269 332.79 360.999 333.148C345.757 335.55 360.556 355.677 366.852 339.997C367.761 337.733 367.89 335.398 368 333z"/>
<path style="fill:#7e8f3b; stroke:none;" d="M355 355C351.422 355 347.531 354.582 344.001 355.228C325.6 358.599 344.923 383.224 352.995 363.999C354.169 361.203 354.441 357.964 355 355M160 356C160.408 359.029 160.952 362.102 161.978 364.996C168.627 383.749 189.397 360.138 170.996 356.279C167.497 355.545 163.561 356 160 356z"/>
<path style="fill:#d9c7c2; stroke:none;" d="M232 418L232 419L238 419L232 418z"/>
<path style="fill:#ffffff; stroke:none;" d="M231.044 419.742C220.364 424.09 227.575 442.635 238.995 438.257C252.062 433.248 243.922 414.5 231.044 419.742z"/>
<path style="fill:#99875d; stroke:none;" d="M306 424L306 431L307 431L306 424z"/>
<path style="fill:#dbcac5; stroke:none;" d="M225 425L225 431L226 431L225 425z"/>
<path style="fill:#cabeba; stroke:none;" d="M281 427L281 428L287 428L281 427z"/>
<path style="fill:#ffffff; stroke:none;" d="M279.094 428.858C267.479 434.009 277.253 452.214 288.956 445.972C300.424 439.856 290.414 423.838 279.094 428.858z"/>
<path style="fill:#967e76; stroke:none;" d="M273 435L273 439L274 439L273 435z"/>
<path style="fill:#ffffff; stroke:none;" d="M200 491C207.344 487.501 211.194 478.604 213 471L214 471L212.09 509L215 530L224 532L223 501L224 501C226.574 510.136 228.015 532.202 239 534C239 513.835 231.183 493.234 236 473L237 473L246.245 503L245 534L250 534C250.751 530.409 252.192 518.422 257.004 518.346C262.186 518.263 264.127 530.226 265 534L270 534L266.592 505L281 471L282 471L276 502L281 502L275 534C290.522 532.576 284.815 510.645 294 503C296.598 513.546 295.147 521.596 293 532L300 531L305 504L309 504L303 475L304 475L312 484C311.968 472.739 301.742 448.766 288 449.103C281.325 449.266 278.487 455.515 276.671 461C272.952 472.229 272.819 493.267 257 493.851C238.519 494.533 243.396 465.255 239.961 454C236.159 441.544 229.586 437.494 219 446.326C215.928 448.888 213.122 451.833 210.681 455C207.473 459.161 204.649 464.033 202.9 469C200.298 476.392 200 483.259 200 491z"/>
<path style="fill:#a49864; stroke:none;" d="M309.333 444.667L309.667 445.333L309.333 444.667z"/>
<path style="fill:#d6cdc9; stroke:none;" d="M281 447L281 448L286 448L281 447z"/>
<path style="fill:#ac9994; stroke:none;" d="M286 447L290 449L290 448L286 447z"/>
<path style="fill:#d5c1bc; stroke:none;" d="M242 466L242 471L243 471L242 466z"/>
<path style="fill:#af9c96; stroke:none;" d="M274.333 467.667L274.667 468.333L274.333 467.667z"/>
<path style="fill:#ceb7af; stroke:none;" d="M213 471L213 475L214 475L213 471z"/>
<path style="fill:#c5b7b3; stroke:none;" d="M273.333 471.667L273.667 472.333L273.333 471.667z"/>
<path style="fill:#8b7168; stroke:none;" d="M281 471L282 474L281 471z"/>
<path style="fill:#b59388; stroke:none;" d="M243 472L243 485L244 485L243 472z"/>
<path style="fill:#d5c2bc; stroke:none;" d="M201.333 473.667L201.667 474.333L201.333 473.667z"/>
<path style="fill:#9a6b5e; stroke:none;" d="M236 473L238 522L239 522C240.541 519.001 243.654 517.092 244.772 513.896C248.403 503.51 241.022 482.446 236 473z"/>
<path style="fill:#6f4e44; stroke:none;" d="M280 473L266.708 504L270 533L275 533L281 503C268.651 501.029 283.374 481.06 280 473z"/>
<path style="fill:#d4c0ba; stroke:none;" d="M235 474L235 496L236 496L235 474z"/>
<path style="fill:#bea097; stroke:none;" d="M254 474L254 475L258 475L254 474z"/>
<path style="fill:#aa9690; stroke:none;" d="M272 474L272 477L273 477L272 474z"/>
<path style="fill:#dad1ce; stroke:none;" d="M281 474L281 478L282 478L281 474z"/>
<path style="fill:#ffffff; stroke:none;" d="M252.059 476.028C243.129 480.898 250.481 495.947 259.941 490.82C268.941 485.944 261.556 470.847 252.059 476.028z"/>
<path style="fill:#e2d4d0; stroke:none;" d="M212 478L212 482L213 482L212 478z"/>
<path style="fill:#bfb1ac; stroke:none;" d="M312 479L312 484L313 484L312 479z"/>
<path style="fill:#ba9b92; stroke:none;" d="M199 480L199 485L200 485L199 480z"/>
<path style="fill:#d2c8c5; stroke:none;" d="M264 480L264 485L265 485L264 480z"/>
<path style="fill:#d3beb8; stroke:none;" d="M238 481L238 484L239 484L238 481z"/>
<path style="fill:#bd9f96; stroke:none;" d="M247 481L247 485L248 485L247 481z"/>
<path style="fill:#b09e98; stroke:none;" d="M270 483L270 486L271 486L270 483z"/>
<path style="fill:#c5b7b3; stroke:none;" d="M279.333 483.667L279.667 484.333L279.333 483.667z"/>
<path style="fill:#c4a9a1; stroke:none;" d="M211 484L211 488L212 488L211 484z"/>
<path style="fill:#beafa9; stroke:none;" d="M306.333 484.667L306.667 485.333L306.333 484.667z"/>
<path style="fill:#d8c6c0; stroke:none;" d="M199 485L201 492L199 485z"/>
<path style="fill:#bcaca7; stroke:none;" d="M278.333 486.667L278.667 487.333L278.333 486.667z"/>
<path style="fill:#d7c5bf; stroke:none;" d="M240 487L240 490L241 490L240 487z"/>
<path style="fill:#9b857d; stroke:none;" d="M307 487L307 490L308 490L307 487z"/>
<path style="fill:#ece4e1; stroke:none;" d="M211 488L211 506L212 506L211 488z"/>
<path style="fill:#baaaa4; stroke:none;" d="M259.667 493.333L260.333 493.667L259.667 493.333z"/>
<path style="fill:#af9c96; stroke:none;" d="M276.333 493.667L276.667 494.333L276.333 493.667z"/>
<path style="fill:#dad1ce; stroke:none;" d="M308 493L308 497L309 497L308 493z"/>
<path style="fill:#e8dedb; stroke:none;" d="M235 496L235 504L236 504L235 496z"/>
<path style="fill:#9e8881; stroke:none;" d="M275 497L275 502L276 502L275 497z"/>
<path style="fill:#937a72; stroke:none;" d="M309 497L309 504L305 504L305 510L306 510L306 505L310 505L309 497z"/>
<path style="fill:#4ca3de; stroke:none;" d="M87 520C93.665 522.269 100.963 527.492 108 528.062C115.278 528.65 138.287 519.135 142 513C133.271 510.613 117.76 499.19 109 501.187C103.971 502.333 98.8955 508.225 95 511.424C91.8303 514.028 88.8581 516.33 87 520z"/>
<path style="fill:#9a6b5e; stroke:none;" d="M223 501L223 526L224 526L230 523L223 501z"/>
<path style="fill:#cfb9b2; stroke:none;" d="M246 501L246 506L247 506L246 501z"/>
<path style="fill:#d7cdca; stroke:none;" d="M276 502L276 503L281 503L276 502z"/>
<path style="fill:#bcaca7; stroke:none;" d="M292.667 503.333L293.333 503.667L292.667 503.333z"/>
<path style="fill:#c7ada5; stroke:none;" d="M236 504L236 513L237 513L236 504z"/>
<path style="fill:#6f4e44; stroke:none;" d="M291 504L282 532L293 531L294 504L291 504z"/>
<path style="fill:#8f756d; stroke:none;" d="M294 504L294 508L295 508L294 504z"/>
<path style="fill:#a6918b; stroke:none;" d="M266 505L266 508L267 508L266 505z"/>
<path style="fill:#ccc0bc; stroke:none;" d="M290 505L290 508L291 508L290 505z"/>
<path style="fill:#ffffff; stroke:none;" d="M151 506L152 507L151 506z"/>
<path style="fill:#bbaba6; stroke:none;" d="M280 507L280 510L281 510L280 507z"/>
<path style="fill:#c9c27a; stroke:none;" d="M157 509L157 510L161 511L161 510L157 509z"/>
<path style="fill:#ffffaa; stroke:none;" d="M354 509L355 510L354 509z"/>
<path style="fill:#d9d1ce; stroke:none;" d="M245 510L245 533L246 533L245 510z"/>
<path style="fill:#a38f87; stroke:none;" d="M267.333 510.667L267.667 511.333L267.333 510.667z"/>
<path style="fill:#b2a09a; stroke:none;" d="M295 510L295 522L296 522L295 510z"/>
<path style="fill:#d2d27e; stroke:none;" d="M161 511L161 512L165 513L165 512L161 511z"/>
<path style="fill:#d2c7c4; stroke:none;" d="M289 511L289 514L290 514L289 511z"/>
<path style="fill:#cabdb9; stroke:none;" d="M304 511L304 514L305 514L304 511z"/>
<path style="fill:#c2a59e; stroke:none;" d="M212 512L212 516L213 516L212 512z"/>
<path style="fill:#d6ccc9; stroke:none;" d="M279 512L279 517L280 517L279 512z"/>
<path style="fill:#c3ba78; stroke:none;" d="M167 514L167 515L174 517L167 514z"/>
<path style="fill:#9d8780; stroke:none;" d="M268 515L268 518L269 518L268 515z"/>
<path style="fill:#6f4e44; stroke:none;" d="M244 516C237.764 520.286 239 526.089 239 533L245 533L244 516z"/>
<path style="fill:#a6918a; stroke:none;" d="M288.333 516.667L288.667 517.333L288.333 516.667z"/>
<path style="fill:#c8aea7; stroke:none;" d="M228.333 517.667L228.667 518.333L228.333 517.667z"/>
<path style="fill:#9f8982; stroke:none;" d="M256 517L256 518L259 518L256 517z"/>
<path style="fill:#ad9a94; stroke:none;" d="M303.333 517.667L303.667 518.333L303.333 517.667z"/>
<path style="fill:#6f4e44; stroke:none;" d="M254 518L250 534L265 534C263.916 527.022 261.917 518.26 254 518z"/>
<path style="fill:#ad9a94; stroke:none;" d="M253 519L253 522L254 522L253 519z"/>
<path style="fill:#a18b84; stroke:none;" d="M287.333 519.667L287.667 520.333L287.333 519.667z"/>
<path style="fill:#ffffaa; stroke:none;" d="M185 521L186 522L185 521z"/>
<path style="fill:#9d857e; stroke:none;" d="M302.333 521.667L302.667 522.333L302.333 521.667z"/>
<path style="fill:#4ca3de; stroke:none;" d="M397 534C409.223 559.838 429.007 583.879 444.414 608C447.965 613.561 455.333 630.701 462.093 632.172C466.167 633.058 472.571 628.041 476 626.139C486.581 620.27 497.634 613.136 509 609L498 588L473 600C462.146 571.364 436.106 548.704 423 521L397 534z"/>
<path style="fill:#a18a84; stroke:none;" d="M261.333 522.667L261.667 523.333L261.333 522.667z"/>
<path style="fill:#bdada8; stroke:none;" d="M269 522L269 526L270 526L269 522z"/>
<path style="fill:#6f4e44; stroke:none;" d="M224 524L224 531L233 532C231.659 526.229 230.392 523.01 224 524z"/>
<path style="fill:#c8bdb8; stroke:none;" d="M277.333 523.667L277.667 524.333L277.333 523.667z"/>
<path style="fill:#bfb1ac; stroke:none;" d="M294.333 524.667L294.667 525.333L294.333 524.667z"/>
<path style="fill:#a38d87; stroke:none;" d="M262.333 525.667L262.667 526.333L262.333 525.667z"/>
<path style="fill:#ffffff; stroke:none;" d="M413 525L414 526L413 525z"/>
<path style="fill:#4ca3de; stroke:none;" d="M0 620L33 633C41.8788 620.652 47.4938 626.769 60 631L57 644L91 657C90.6198 647.261 94.6413 636.531 96.5509 627C100.294 608.319 104.263 589.685 108 571C109.477 563.614 116.178 547.313 113.357 540.275C112.368 537.806 109.229 536.819 106.999 535.851C101.444 533.439 85.9781 524.212 80.2855 527.071C73.4456 530.506 67.7718 540.519 62.6898 546.17C48.1937 562.289 34.0069 578.7 19.7153 595C13.3773 602.229 2.63436 610.592 0 620z"/>
<path style="fill:#b9aaa5; stroke:none;" d="M251.333 527.667L251.667 528.333L251.333 527.667z"/>
<path style="fill:#bbaba6; stroke:none;" d="M293 527L293 530L294 530L293 527z"/>
<path style="fill:#eef690; stroke:none;" d="M210.667 528.333L211.333 528.667L210.667 528.333z"/>
<path style="fill:#a6928b; stroke:none;" d="M275 529L275 532L276 532L275 529z"/>
<path style="fill:#0000ff; stroke:none;" d="M400 532L401 533L400 532M397 535L398 536L397 535z"/>
<path style="fill:#4ca3de; stroke:none;" d="M358 544.428C345.223 546.259 329.866 550.443 323.67 563.004C317.151 576.219 323.967 591.977 327.709 605C335.996 633.839 340.506 670.187 379 664.714C384.126 663.986 389.211 662.509 394 660.546C424.692 647.965 408.514 611.981 401.341 589C394.286 566.396 388.036 540.125 358 544.428z"/>
<path style="fill:#ffffff; stroke:none;" d="M369 544L370 545L369 544z"/>
<path style="fill:#0000ff; stroke:none;" d="M437 544L438 545L437 544z"/>
<path style="fill:#4ca3de; stroke:none;" d="M140 546L131.565 592L118 669L148 673C151.73 658.583 151.115 641.977 156.344 628.059C158.862 621.358 169.409 625.019 171.958 630.044C176.042 638.098 168.111 655 168.004 664C167.967 667.076 166.979 672.751 169.603 675.012C173.116 678.037 181.567 677.529 186 678.246C190.35 678.95 194.604 679 199 679C194.872 664.275 202.561 647.912 203.826 633C204.265 627.835 200.871 621.859 202.345 617C207.593 599.697 221.869 575.96 202.91 560.761C186.198 547.364 159.817 550.882 140 546z"/>
<path style="fill:#ffffff; stroke:none;" d="M341 548L342 549L341 548z"/>
<path style="fill:#0000ff; stroke:none;" d="M407 550L408 551L407 550z"/>
<path style="fill:#4ca3de; stroke:none;" d="M229 559L235 679C254.044 679 284.804 682.487 299.985 668.815C312.031 657.966 315.619 621.161 295 617C313.468 605.255 310.668 571.504 291 561.659C273.384 552.841 247.975 559 229 559z"/>
<path style="fill:#000000; stroke:none;" d="M356.005 568.573C348.266 570.782 350.321 578.142 352 584L365 629C366.726 634.989 368.78 643.533 376.996 641.181C385.551 638.732 383.141 631.437 381.291 625C376.982 610.005 372.804 594.97 368.424 580C366.562 573.633 364.371 566.186 356.005 568.573z"/>
<path style="fill:#0000ff; stroke:none;" d="M303 574L304 575L303 574z"/>
<path style="fill:#000000; stroke:none;" d="M165 575L161 600C165.715 600.372 172.603 602.673 176.721 599.397C181.313 595.743 183.677 581.699 178.721 577.738C175.166 574.898 169.305 575.036 165 575z"/>
<path style="fill:#00ff00; stroke:none;" d="M304 577L305 578L304 577z"/>
<path style="fill:#ffffff; stroke:none;" d="M34 578L35 579L34 578z"/>
<path style="fill:#000000; stroke:none;" d="M74 579L55 604L67 608L74 579M260 581L261 606C265.259 606 271.154 606.992 274.772 604.258C279.294 600.84 278.893 586.554 274.566 583.009C270.836 579.954 264.48 581 260 581z"/>
<path style="fill:#ffffff; stroke:none;" d="M433 590L434 591L433 590z"/>
<path style="fill:#0000ff; stroke:none;" d="M130 597L131 598L130 597M18 627L19 628L18 627z"/>
<path style="fill:#ffffff; stroke:none;" d="M232 628L233 629L232 628z"/>
<path style="fill:#000000; stroke:none;" d="M262 630L263 655C267.219 654.467 274.166 654.928 277.566 652.142C281.988 648.52 281.28 634.22 276.606 630.992C272.834 628.387 266.322 629.989 262 630z"/>
<path style="fill:#ffffff; stroke:none;" d="M122 643L123 644L122 643z"/>
<path style="fill:#0000ff; stroke:none;" d="M410 645L411 646L410 645M360 664L361 665L360 664z"/>
<path style="fill:#ffffff; stroke:none;" d="M197 673L198 674L197 673z"/>
<path style="fill:#0000ff; stroke:none;" d="M181 677L182 678L181 677z"/>
</svg>
