<?xml version="1.0" standalone="no"?>
<!DOCTYPE svg PUBLIC "-//W3C//DTD SVG 20010904//EN"
 "http://www.w3.org/TR/2001/REC-SVG-20010904/DTD/svg10.dtd">
<svg version="1.0" xmlns="http://www.w3.org/2000/svg"
 width="134.000000pt" height="73.000000pt" viewBox="0 0 134.000000 73.000000"
 preserveAspectRatio="xMidYMid meet">

<g transform="translate(0.000000,73.000000) scale(0.100000,-0.100000)"
fill="#000000" stroke="none">
<path d="M130 500 c0 -40 4 -70 10 -70 6 0 10 14 10 30 0 28 3 30 35 30 19 0
35 5 35 10 0 6 -16 10 -35 10 -28 0 -35 4 -35 20 0 17 7 20 40 20 22 0 40 5
40 10 0 6 -22 10 -50 10 l-50 0 0 -70z"/>
<path d="M580 544 c0 -22 -4 -25 -22 -21 -33 9 -58 -10 -58 -43 0 -35 11 -42
61 -45 l39 -2 0 68 c0 39 -4 69 -10 69 -5 0 -10 -12 -10 -26z m-5 -64 c0 -18
-6 -26 -23 -28 -13 -2 -25 3 -28 12 -10 26 4 48 28 44 17 -2 23 -10 23 -28z"/>
<path d="M860 560 c0 -5 5 -10 10 -10 6 0 10 5 10 10 0 6 -4 10 -10 10 -5 0
-10 -4 -10 -10z"/>
<path d="M960 549 c0 -5 5 -7 10 -4 6 3 10 8 10 11 0 2 -4 4 -10 4 -5 0 -10
-5 -10 -11z"/>
<path d="M250 491 c0 -45 13 -58 58 -58 32 0 32 1 32 49 0 26 -4 48 -10 48 -5
0 -10 -18 -10 -40 0 -36 -2 -40 -25 -40 -22 0 -25 4 -25 40 0 22 -4 40 -10 40
-5 0 -10 -17 -10 -39z"/>
<path d="M380 479 c0 -57 17 -66 22 -11 2 29 8 38 25 40 19 3 22 -2 26 -40 l4
-43 1 48 c1 26 -1 47 -5 48 -5 1 -23 2 -40 4 l-33 3 0 -49z"/>
<path d="M645 517 c-16 -13 -15 -14 13 -9 41 6 42 -14 1 -23 -23 -5 -29 -12
-27 -28 2 -11 10 -23 18 -25 13 -5 13 -3 1 12 -13 15 -13 19 0 27 21 13 39 11
39 -6 0 -8 -6 -15 -12 -15 -9 0 -8 -4 2 -10 25 -16 30 -12 30 30 0 29 -5 42
-19 50 -25 13 -24 13 -46 -3z"/>
<path d="M760 510 c-24 -24 -25 -43 -4 -64 17 -18 24 -19 48 -10 25 10 19 20
-11 19 -23 0 -28 4 -28 25 0 22 4 25 35 23 33 -1 34 0 16 13 -26 18 -32 18
-56 -6z"/>
<path d="M860 480 c0 -27 5 -50 10 -50 6 0 10 23 10 50 0 28 -4 50 -10 50 -5
0 -10 -22 -10 -50z"/>
<path d="M932 514 c-40 -28 -23 -77 28 -77 32 0 50 15 50 43 0 39 -44 58 -78
34z m58 -19 c15 -18 -2 -45 -30 -45 -28 0 -45 27 -30 45 7 8 20 15 30 15 10 0
23 -7 30 -15z"/>
<path d="M1040 478 c0 -56 17 -65 22 -10 2 30 7 38 26 40 20 3 22 -1 22 -37 0
-23 5 -41 10 -41 11 0 14 89 3 91 -5 1 -25 2 -45 3 l-38 3 0 -49z"/>
<path d="M132 253 c1 -67 1 -67 7 -18 6 53 11 52 31 -8 15 -47 30 -43 52 14
l17 44 0 -47 c1 -27 6 -48 11 -48 6 0 10 28 10 65 0 80 -18 87 -43 15 -10 -27
-21 -50 -25 -50 -4 0 -15 23 -25 50 -10 28 -22 50 -27 50 -6 0 -9 -30 -8 -67z"/>
<path d="M525 310 c-3 -6 1 -7 9 -4 18 7 21 14 7 14 -6 0 -13 -4 -16 -10z"/>
<path d="M778 255 c-15 -36 -22 -65 -16 -65 5 0 12 9 15 20 8 28 68 28 76 0 3
-11 10 -20 15 -20 6 0 -1 29 -16 65 -14 36 -31 65 -37 65 -6 0 -23 -29 -37
-65z m62 -7 c0 -4 -11 -8 -25 -8 -28 0 -30 3 -14 32 11 21 12 21 25 3 8 -10
14 -22 14 -27z"/>
<path d="M960 255 l0 -65 33 0 c38 0 57 15 57 46 0 28 -24 48 -50 41 -16 -4
-20 0 -20 19 0 13 -4 24 -10 24 -6 0 -10 -28 -10 -65z m75 -4 c9 -29 -5 -52
-29 -49 -37 5 -34 68 3 68 11 0 22 -8 26 -19z"/>
<path d="M1190 255 c0 -37 4 -65 10 -65 6 0 10 28 10 65 0 37 -4 65 -10 65 -6
0 -10 -28 -10 -65z"/>
<path d="M303 235 c0 -27 2 -38 4 -22 2 15 2 37 0 50 -2 12 -4 0 -4 -28z"/>
<path d="M341 266 c-13 -15 1 -31 33 -37 11 -2 21 -10 24 -16 5 -17 -40 -17
-56 -1 -9 9 -12 9 -12 0 0 -14 44 -26 66 -18 23 9 13 39 -15 46 -14 3 -27 12
-29 19 -4 11 3 13 27 8 20 -4 30 -3 26 3 -9 15 -51 12 -64 -4z"/>
<path d="M443 235 c0 -27 2 -38 4 -22 2 15 2 37 0 50 -2 12 -4 0 -4 -28z"/>
<path d="M492 268 c-15 -15 -15 -51 0 -66 15 -15 51 -15 66 0 28 28 7 78 -33
78 -12 0 -26 -5 -33 -12z m62 -20 c8 -14 7 -21 -6 -34 -30 -30 -75 9 -48 42
16 18 39 15 54 -8z"/>
<path d="M590 234 c0 -53 18 -59 22 -6 2 29 7 38 25 40 17 2 24 -3 27 -20 3
-13 7 -32 9 -43 3 -11 5 -1 6 22 1 45 -6 50 -66 51 -21 1 -23 -4 -23 -44z"/>
<path d="M902 230 c1 -39 2 -40 5 -11 3 22 11 35 24 38 28 8 23 21 -6 19 -23
-1 -25 -5 -23 -46z"/>
<path d="M1086 264 c-9 -8 -16 -22 -16 -29 0 -19 28 -45 49 -45 19 0 51 30 51
47 0 15 -34 43 -53 43 -8 0 -23 -7 -31 -16z m59 -29 c0 -25 -4 -30 -25 -30
-16 0 -26 6 -28 18 -6 30 6 49 30 45 18 -2 23 -9 23 -33z"/>
</g>
</svg>
