<?xml version="1.0" standalone="no"?>
<!DOCTYPE svg PUBLIC "-//W3C//DTD SVG 20010904//EN"
 "http://www.w3.org/TR/2001/REC-SVG-20010904/DTD/svg10.dtd">
<svg version="1.0" xmlns="http://www.w3.org/2000/svg"
 width="141.000000pt" height="88.000000pt" viewBox="0 0 141.000000 88.000000"
 preserveAspectRatio="xMidYMid meet">

<g transform="translate(0.000000,88.000000) scale(0.100000,-0.100000)"
fill="#fff" stroke="none">
<path d="M172 518 c0 -40 3 -59 5 -41 4 27 9 32 36 36 l32 4 -32 1 c-29 2 -33
5 -33 31 0 26 4 30 33 34 31 4 31 4 -5 5 l-38 2 2 -72z"/>
<path d="M582 570 c0 -14 2 -19 5 -12 2 6 2 18 0 25 -3 6 -5 1 -5 -13z"/>
<path d="M272 519 c-2 -54 13 -73 52 -63 24 6 26 10 24 58 -1 49 -2 49 -5 9
-8 -80 -59 -85 -66 -6 l-3 48 -2 -46z"/>
<path d="M390 505 c0 -32 2 -56 4 -54 8 8 10 98 3 105 -4 4 -7 -19 -7 -51z"/>
<path d="M426 551 c-3 -5 3 -11 13 -14 15 -4 21 -16 24 -48 l4 -44 1 46 c2 52
-24 90 -42 60z"/>
<path d="M520 545 c-7 -9 -10 -18 -6 -22 3 -3 6 -1 6 6 0 8 11 11 28 9 30 -3
42 -38 22 -64 -19 -21 -38 -17 -55 14 -9 15 -14 19 -11 9 3 -10 6 -22 6 -27 0
-15 38 -22 60 -10 31 17 28 73 -5 88 -32 15 -30 15 -45 -3z"/>
<path d="M635 551 c-3 -5 7 -11 22 -13 35 -4 43 -28 9 -28 -13 0 -27 -4 -30
-8 -3 -5 8 -6 25 -4 21 3 29 0 29 -11 0 -18 -34 -32 -51 -21 -8 4 -9 3 -5 -4
4 -6 20 -10 36 -9 28 2 30 5 30 43 0 22 -5 45 -12 52 -14 14 -44 16 -53 3z"/>
<path d="M745 536 c-10 -15 -14 -33 -9 -50 7 -28 40 -44 56 -28 8 8 5 9 -10 5
-14 -3 -24 2 -32 16 -16 31 -4 61 26 61 13 0 24 5 24 10 0 20 -40 10 -55 -14z"/>
<path d="M833 505 c0 -33 2 -45 4 -27 2 18 2 45 0 60 -2 15 -4 0 -4 -33z"/>
<path d="M896 544 c-23 -22 -20 -71 3 -84 27 -14 37 -13 55 6 30 30 10 94 -29
94 -7 0 -21 -7 -29 -16z m59 -38 c0 -36 -26 -56 -49 -37 -16 14 -22 52 -9 65
4 4 19 6 33 4 20 -2 25 -8 25 -32z"/>
<path d="M1004 507 c-1 -29 1 -38 3 -22 6 37 20 55 44 55 14 0 19 -10 22 -47
l3 -48 2 53 c2 57 -14 76 -44 51 -11 -9 -17 -10 -23 -1 -3 6 -7 -12 -7 -41z"/>
<path d="M926 344 c-5 -14 -4 -15 9 -4 17 14 19 20 6 20 -5 0 -12 -7 -15 -16z"/>
<path d="M376 331 c-4 -7 -5 -15 -2 -18 9 -9 19 4 14 18 -4 11 -6 11 -12 0z"/>
<path d="M526 331 c-4 -5 -2 -12 3 -15 5 -4 12 -2 15 3 4 5 2 12 -3 15 -5 4
-12 2 -15 -3z"/>
<path d="M635 329 c-11 -17 1 -21 15 -4 8 9 8 15 2 15 -6 0 -14 -5 -17 -11z"/>
<path d="M1102 255 c-1 -48 2 -75 7 -66 6 9 11 10 15 2 4 -6 16 -11 27 -11 26
0 42 42 29 76 -9 23 -15 26 -40 21 -26 -6 -29 -4 -33 26 -2 18 -4 -4 -5 -48z
m63 -20 c0 -25 -4 -30 -25 -30 -28 0 -39 27 -19 51 20 24 44 13 44 -21z"/>
<path d="M1351 255 c1 -41 6 -75 10 -75 5 0 9 34 9 75 0 46 -4 75 -11 75 -6 0
-9 -28 -8 -75z"/>
<path d="M170 250 c0 -38 3 -70 8 -70 4 0 5 23 3 51 -5 76 12 80 38 9 12 -33
25 -60 30 -60 4 0 15 24 25 53 27 77 36 79 36 9 0 -35 4 -62 10 -62 6 0 10 30
10 70 0 62 -2 70 -19 70 -14 0 -24 -13 -36 -51 -9 -27 -22 -48 -28 -46 -6 2
-18 25 -26 50 -10 34 -20 47 -33 47 -16 0 -18 -9 -18 -70z"/>
<path d="M910 316 c0 -2 -11 -33 -25 -70 -19 -51 -22 -66 -11 -66 7 0 16 9 19
20 3 14 14 20 32 20 18 0 29 -6 32 -20 3 -11 11 -20 19 -20 10 0 7 16 -11 65
-14 36 -25 68 -25 70 0 3 -7 5 -15 5 -8 0 -15 -2 -15 -4z m35 -58 c6 -25 5
-28 -19 -28 -29 0 -31 6 -16 46 12 31 25 24 35 -18z"/>
<path d="M370 230 c0 -27 5 -50 10 -50 6 0 10 23 10 50 0 28 -4 50 -10 50 -5
0 -10 -22 -10 -50z"/>
<path d="M433 263 c-4 -11 1 -22 15 -31 27 -18 28 -32 2 -32 -11 0 -20 -5 -20
-11 0 -6 12 -9 28 -7 37 4 42 40 7 56 -32 15 -33 36 0 30 13 -3 22 -1 19 3 -9
15 -44 10 -51 -8z"/>
<path d="M525 230 c0 -27 5 -50 10 -50 6 0 10 23 10 50 0 28 -4 50 -10 50 -5
0 -10 -22 -10 -50z"/>
<path d="M592 268 c-7 -7 -12 -24 -12 -38 0 -14 5 -31 12 -38 15 -15 51 -15
66 0 18 18 15 75 -4 82 -25 9 -49 7 -62 -6z m58 -13 c18 -21 3 -55 -25 -55
-27 0 -39 24 -25 51 13 23 33 25 50 4z"/>
<path d="M710 228 c0 -26 5 -48 10 -48 6 0 10 18 10 39 0 26 5 41 16 45 25 10
34 -2 34 -45 0 -21 5 -39 10 -39 12 0 13 69 2 87 -4 6 -24 11 -45 10 l-37 -1
0 -48z"/>
<path d="M1010 228 c0 -26 5 -48 10 -48 6 0 10 15 10 34 0 24 7 39 21 50 21
14 21 15 -10 14 -30 -1 -31 -2 -31 -50z"/>
<path d="M1232 268 c-15 -15 -16 -60 0 -76 16 -16 53 -15 67 2 7 8 11 30 9 48
-3 29 -7 33 -33 36 -17 2 -36 -3 -43 -10z m58 -13 c6 -8 10 -22 8 -32 -5 -25
-51 -25 -56 0 -8 42 23 63 48 32z"/>
</g>
</svg>
